<svg xmlns="http://www.w3.org/2000/svg" viewBox="0 0 1306 1204" fill="none">
<path d="M 840,21 L 838,24 L 833,25 L 827,33 L 828,37 L 825,41 L 824,46 L 817,54 L 813,55 L 810,58 L 810,65 L 800,67 L 794,63 L 787,62 L 781,67 L 778,73 L 778,77 L 784,84 L 778,89 L 778,105 L 773,107 L 770,111 L 762,111 L 757,107 L 752,109 L 751,115 L 754,118 L 756,124 L 741,137 L 740,144 L 735,140 L 736,135 L 732,131 L 727,132 L 725,138 L 723,136 L 723,132 L 720,130 L 714,133 L 711,136 L 712,139 L 703,145 L 704,149 L 700,153 L 695,153 L 692,158 L 683,158 L 680,161 L 685,172 L 684,177 L 680,181 L 680,190 L 688,196 L 688,201 L 682,199 L 679,202 L 673,196 L 659,197 L 657,194 L 653,194 L 650,196 L 650,199 L 648,201 L 641,195 L 637,195 L 634,198 L 624,198 L 618,200 L 615,197 L 616,195 L 614,193 L 613,185 L 605,186 L 603,183 L 599,183 L 594,189 L 589,183 L 581,183 L 577,175 L 572,174 L 569,177 L 568,184 L 563,187 L 562,194 L 567,199 L 567,204 L 573,208 L 575,213 L 575,216 L 571,219 L 570,222 L 571,230 L 576,234 L 573,241 L 574,249 L 576,252 L 575,255 L 568,254 L 566,252 L 566,248 L 557,249 L 551,256 L 548,254 L 543,255 L 542,252 L 539,251 L 531,251 L 520,255 L 513,256 L 512,260 L 513,267 L 511,269 L 505,269 L 500,274 L 495,269 L 485,263 L 484,258 L 480,255 L 472,258 L 465,255 L 456,256 L 452,259 L 453,263 L 456,266 L 450,272 L 450,283 L 441,286 L 433,286 L 427,291 L 422,291 L 416,294 L 410,301 L 410,305 L 413,309 L 409,313 L 404,312 L 401,316 L 399,316 L 397,314 L 398,310 L 395,304 L 386,304 L 384,299 L 380,299 L 376,304 L 377,308 L 372,310 L 369,314 L 364,313 L 361,315 L 359,319 L 353,314 L 347,318 L 347,327 L 350,330 L 354,330 L 359,339 L 357,346 L 354,348 L 354,353 L 356,356 L 354,357 L 353,362 L 360,362 L 360,360 L 362,359 L 366,363 L 373,364 L 379,371 L 376,386 L 366,387 L 361,391 L 359,395 L 360,400 L 369,399 L 371,403 L 365,415 L 354,424 L 355,428 L 361,428 L 356,433 L 354,438 L 352,440 L 342,441 L 339,436 L 333,435 L 329,441 L 325,441 L 319,445 L 317,451 L 311,455 L 311,458 L 313,460 L 315,459 L 318,462 L 322,462 L 325,459 L 333,459 L 339,464 L 336,468 L 340,472 L 339,479 L 336,482 L 336,485 L 339,489 L 338,499 L 342,501 L 344,504 L 343,514 L 341,516 L 335,516 L 334,518 L 335,525 L 342,531 L 337,541 L 336,550 L 334,553 L 337,559 L 331,563 L 325,570 L 321,567 L 316,567 L 311,573 L 306,573 L 304,575 L 303,581 L 307,587 L 303,590 L 302,595 L 307,598 L 312,605 L 316,605 L 320,608 L 325,605 L 327,606 L 327,612 L 331,616 L 329,622 L 332,625 L 334,636 L 337,639 L 341,639 L 344,641 L 344,647 L 350,664 L 351,674 L 354,683 L 361,695 L 362,712 L 366,725 L 378,737 L 381,744 L 388,780 L 393,791 L 392,802 L 396,818 L 396,835 L 401,847 L 405,871 L 410,884 L 411,893 L 419,920 L 421,922 L 432,921 L 436,919 L 444,921 L 445,923 L 442,926 L 442,928 L 448,932 L 448,937 L 455,939 L 460,935 L 465,942 L 470,940 L 471,942 L 469,946 L 473,951 L 477,952 L 485,947 L 489,947 L 490,948 L 484,953 L 484,958 L 487,962 L 491,963 L 494,966 L 494,971 L 496,973 L 501,974 L 500,978 L 509,989 L 511,1001 L 517,1001 L 521,1006 L 524,1006 L 538,1026 L 543,1028 L 549,1028 L 553,1035 L 560,1037 L 569,1036 L 574,1050 L 581,1057 L 582,1060 L 589,1060 L 600,1064 L 608,1064 L 618,1058 L 622,1058 L 624,1062 L 623,1074 L 627,1078 L 631,1078 L 633,1076 L 639,1077 L 642,1080 L 643,1084 L 650,1085 L 656,1092 L 667,1091 L 669,1095 L 669,1106 L 677,1107 L 681,1105 L 684,1101 L 686,1101 L 692,1105 L 693,1110 L 697,1115 L 704,1117 L 727,1117 L 738,1121 L 742,1121 L 743,1119 L 741,1111 L 742,1105 L 754,1086 L 763,1087 L 766,1085 L 768,1089 L 771,1089 L 774,1086 L 776,1088 L 776,1092 L 783,1097 L 787,1097 L 789,1089 L 809,1084 L 814,1084 L 820,1089 L 830,1087 L 834,1090 L 838,1090 L 844,1080 L 845,1069 L 849,1061 L 851,1063 L 854,1063 L 856,1060 L 876,1058 L 880,1056 L 885,1045 L 896,1033 L 896,1028 L 891,1023 L 891,1020 L 888,1017 L 870,1014 L 866,1012 L 852,1013 L 847,1008 L 851,1003 L 855,1004 L 864,999 L 874,983 L 874,966 L 872,963 L 868,963 L 866,959 L 866,952 L 870,941 L 875,938 L 878,941 L 892,939 L 903,925 L 902,919 L 905,908 L 920,903 L 924,905 L 924,910 L 931,915 L 935,915 L 936,910 L 941,908 L 945,912 L 952,915 L 958,921 L 971,923 L 976,917 L 978,905 L 983,905 L 989,901 L 991,894 L 1006,902 L 1010,900 L 1011,895 L 1005,888 L 1005,886 L 1013,880 L 1012,876 L 1018,866 L 1024,864 L 1023,858 L 1025,856 L 1025,853 L 1027,852 L 1027,847 L 1025,845 L 1027,838 L 1024,834 L 1016,838 L 1011,832 L 1006,833 L 1002,828 L 997,827 L 995,825 L 997,822 L 995,805 L 996,798 L 999,793 L 999,788 L 995,786 L 977,786 L 973,784 L 968,784 L 967,780 L 962,774 L 956,772 L 953,774 L 953,769 L 958,765 L 958,759 L 956,758 L 958,756 L 958,746 L 956,743 L 948,738 L 937,740 L 937,730 L 935,727 L 929,729 L 925,734 L 923,733 L 923,731 L 920,731 L 915,728 L 908,729 L 906,731 L 906,735 L 909,740 L 902,747 L 894,750 L 890,754 L 889,758 L 885,754 L 882,754 L 879,759 L 871,757 L 869,760 L 865,761 L 864,765 L 858,762 L 851,772 L 849,771 L 849,769 L 853,763 L 853,759 L 849,756 L 851,751 L 846,745 L 839,745 L 831,734 L 824,734 L 821,736 L 817,734 L 812,734 L 804,726 L 802,722 L 799,723 L 799,726 L 805,732 L 802,733 L 795,740 L 795,747 L 797,748 L 799,754 L 797,756 L 790,754 L 787,757 L 783,753 L 780,753 L 776,757 L 774,756 L 775,751 L 772,746 L 777,741 L 777,737 L 782,734 L 782,730 L 780,727 L 781,722 L 770,715 L 770,712 L 772,711 L 772,705 L 762,698 L 764,696 L 776,693 L 780,696 L 781,709 L 788,711 L 793,710 L 794,712 L 805,717 L 828,713 L 830,715 L 830,719 L 835,723 L 837,727 L 835,733 L 845,738 L 847,737 L 845,729 L 848,726 L 846,720 L 839,713 L 836,712 L 841,708 L 841,703 L 845,695 L 850,692 L 855,695 L 860,695 L 862,693 L 862,688 L 860,686 L 862,683 L 861,674 L 853,670 L 852,664 L 847,665 L 841,663 L 838,666 L 839,674 L 837,675 L 835,673 L 832,673 L 829,670 L 828,666 L 823,662 L 818,662 L 814,665 L 809,664 L 807,662 L 799,662 L 795,664 L 794,672 L 791,678 L 788,676 L 782,676 L 777,678 L 771,677 L 766,673 L 772,665 L 769,662 L 763,661 L 759,657 L 759,654 L 761,650 L 769,649 L 770,641 L 774,637 L 771,634 L 760,636 L 757,635 L 745,623 L 744,620 L 744,611 L 747,605 L 747,594 L 752,594 L 757,590 L 758,575 L 761,569 L 761,565 L 759,562 L 754,563 L 746,559 L 749,554 L 748,546 L 751,544 L 757,550 L 769,554 L 785,553 L 787,556 L 793,557 L 796,552 L 801,550 L 804,538 L 806,536 L 806,531 L 808,529 L 808,526 L 805,520 L 803,519 L 806,515 L 805,511 L 798,503 L 790,501 L 788,492 L 785,486 L 780,481 L 781,479 L 784,481 L 788,480 L 789,459 L 794,455 L 802,457 L 804,454 L 803,451 L 794,441 L 796,431 L 794,428 L 791,427 L 793,421 L 802,412 L 818,407 L 848,410 L 858,413 L 864,412 L 867,407 L 867,403 L 863,392 L 864,377 L 862,375 L 865,371 L 862,365 L 864,363 L 869,362 L 872,358 L 877,359 L 880,353 L 878,348 L 861,340 L 855,340 L 851,342 L 834,338 L 828,333 L 826,329 L 829,327 L 837,327 L 847,324 L 851,317 L 850,315 L 860,310 L 860,305 L 857,300 L 862,295 L 862,287 L 855,281 L 858,278 L 862,277 L 862,272 L 860,271 L 859,256 L 866,243 L 866,239 L 863,234 L 863,225 L 851,220 L 848,216 L 848,212 L 856,205 L 859,199 L 861,189 L 870,189 L 871,186 L 874,184 L 875,175 L 882,176 L 887,171 L 895,171 L 898,169 L 898,165 L 895,162 L 891,163 L 887,160 L 884,160 L 879,155 L 871,157 L 860,152 L 862,149 L 863,139 L 865,137 L 872,136 L 879,130 L 878,127 L 872,122 L 873,120 L 883,115 L 884,110 L 887,107 L 889,107 L 889,101 L 894,96 L 894,92 L 891,88 L 881,85 L 879,83 L 886,78 L 888,74 L 886,66 L 882,60 L 884,57 L 883,55 L 888,51 L 887,46 L 881,45 L 879,43 L 874,43 L 868,48 L 863,44 L 855,43 L 854,42 L 858,38 L 857,34 L 859,33 L 859,28 L 856,26 L 850,26 L 847,21 L 841,21" stroke="black" stroke-width="2" stroke-linecap="round" stroke-linejoin="round"/>
</svg>